<?xml version="1.0" encoding="UTF-8"?>
<svg id="Layer_1" data-name="Layer 1" xmlns="http://www.w3.org/2000/svg" viewBox="0 0 486.57 95.86">
  <defs>
    <style>
      .cls-1 {
        fill: #ae492f;
      }

      .cls-2 {
        fill: #ef7f1a;
      }

      .cls-2, .cls-3, .cls-4, .cls-5 {
        fill-rule: evenodd;
      }

      .cls-3 {
        fill: #c7582b;
      }

      .cls-4 {
        fill: #20583c;
      }

      .cls-6 {
        fill: #20376b;
      }

      .cls-5, .cls-7 {
        fill: #fefefe;
      }

      .cls-8 {
        fill: #434242;
      }
    </style>
  </defs>
  <path class="cls-5" d="m14.65,12.52c26.24-15.75,63.16-15.18,90.41,0l-.02,23.6c.17,28.03-24.56,51.66-45.23,58.86-21.94-8.27-45.09-29.54-45.18-60.06l.03-22.41Z"/>
  <path class="cls-1" d="m59.04,1.84c-15.43,0-30.72,3.67-43.49,11.21l-.03,21.88c.04,13.65,4.78,25.43,11.96,34.98,8.57,11.39,20.61,19.61,32.33,24.1,11.01-3.91,23.15-12.52,31.94-23.96,7.43-9.67,12.46-21.35,12.39-33.92h0s.02-23.06.02-23.06C90.65,5.66,74.77,1.84,59.04,1.84M14.2,11.73C27.34,3.84,43.12,0,59.04,0c16.2,0,32.57,3.98,46.45,11.72l.47.26v.55l-.02,23.6c.08,13.02-5.11,25.1-12.77,35.06-9.09,11.83-21.69,20.71-33.08,24.67h-.6c-12.1-4.57-24.58-13.05-33.44-24.82-7.41-9.85-12.29-22-12.33-36.11l.03-22.41v-.53l.44-.27Z"/>
  <path class="cls-4" d="m17.16,14.52c24.78-14.88,59.66-14.34,85.4,0l-.02,22.29c.16,26.48-22.81,48.72-42.34,55.52-20.72-7.82-42.99-27.82-43.07-56.65l.03-21.17Z"/>
  <path class="cls-5" d="m71.01,36.68l-.62.02c-.02-2.86-1.08-4.97-3.17-6.34-2.04-1.35-4.51-2.03-7.42-2.03-2.32,0-4.23.53-5.72,1.59-1.51,1.06-2.27,2.32-2.27,3.8,0,1.57.6,2.81,1.78,3.71,1.24.98,3.69,2.15,7.33,3.51,3.39,1.25,5.77,2.26,7.13,3.06,1.45.85,2.54,2.12,3.49,3.72.98,1.64,1.17,3.53,1.01,5.54-.2,3.11-2.28,5.05-4.39,6.8,2.14-3.31,2.66-5.74,1.68-9.34-.5-1.55-1.96-3.15-3.26-4.06-1.34-1.02-3.62-2.02-6.58-3.16-4.52-1.59-7.39-2.87-8.76-4-1.38-1.14-2.11-2.9-2.11-5.33,0-2.81,1.06-5.01,3.17-6.61,2.11-1.55,5.09-2.32,8.97-2.32,2.64,0,5.92.53,9.73,1.51v9.93Z"/>
  <path class="cls-5" d="m48.05,49.97h.73c.16,3.15,1.35,5.74,3.55,7.78,2.16,2.01,4.64,3.02,7.43,3.02,2.16,0,3.91-.65,5.26-1.95,1.35-1.31,2.03-2.87,2.03-4.68,0-1.91-.66-3.41-1.96-4.47-1.26-1.03-3.75-2.31-7.47-3.62-2.97-1.05-4.94-2.09-6.21-2.78-1.47-.8-2.6-1.99-3.44-3.36-2.05-3.56-.17-7.78,1.98-10.27-1.18,2.14-1.66,5.03-.84,7.48.48,1.62,1.8,2.94,3.29,3.69,1.29.74,3.4,1.67,6.39,2.72,3.92,1.38,6.71,2.69,8.45,4.24,1.68,1.5,2.59,3.48,2.59,6.01s-.87,4.73-2.61,6.74c-1.77,2.04-4.4,3.06-7.91,3.06-1.42,0-3.39-.27-5.92-.84-2.21-.5-4.23-.81-5.34-.84v-11.92Z"/>
  <polygon class="cls-2" points="21.23 86 21.23 73.9 .18 73.9 6.67 79.95 0 85.77 21.23 86"/>
  <polygon class="cls-3" points="10.59 80.51 14.02 80.51 21.23 86 10.59 80.51"/>
  <polygon class="cls-2" points="95.08 86 95.08 73.9 116.13 73.9 109.64 79.95 116.31 85.77 95.08 86"/>
  <polygon class="cls-3" points="105.72 80.51 102.29 80.51 95.08 86 105.72 80.51"/>
  <path class="cls-3" d="m10.67,68.75c15.85.42,31.71,1.61,47.57,1.61,15.86,0,31.73-1.19,47.59-1.61v12.1c-15.86.48-31.73,1.85-47.59,1.84-15.87,0-31.72-1.37-47.57-1.84v-12.1"/>
  <path class="cls-7" d="m86.38,78.27l-.2-5.92c0-.1-.03-.18-.08-.23-.05-.05-.13-.09-.26-.12v-.16s2.13-.08,2.13-.08v.16c-.11.04-.2.08-.24.14-.04.06-.07.14-.06.24l.2,5.92c0,.11.03.19.08.24.05.06.13.1.25.12v.16s-2.13.08-2.13.08v-.16c.11-.04.19-.09.24-.14.04-.06.06-.14.06-.24m-7.1-3.21l2.3-.08c.34-.01.58-.03.72-.06.14-.02.27-.07.38-.14.25-.15.37-.41.35-.77-.01-.37-.15-.61-.41-.74-.12-.06-.25-.1-.39-.12-.14-.01-.38-.01-.72,0l-2.3.08.06,1.83Zm.04,1.15l.08,2.32c0,.1.03.18.08.24.05.06.13.1.25.12v.16s-2.13.08-2.13.08v-.16c.11-.04.19-.09.24-.14.04-.06.06-.14.06-.24l-.2-5.92c0-.11-.03-.19-.08-.24-.05-.05-.13-.09-.26-.12v-.16s4.26-.15,4.26-.15c.52-.02.94,0,1.24.05.31.05.58.15.81.29.27.17.47.4.62.7.13.29.2.6.22.93.04,1.14-.56,1.83-1.79,2.07l1.39,1.88c.24.33.42.54.53.64.11.09.25.14.4.15v.16s-2.47.09-2.47.09v-.16c.16-.03.25-.1.24-.19,0-.06-.09-.21-.25-.44l-1.45-2.01-1.82.07Zm-8.7,2.06l1.87-.03c.6-.01,1.04-.1,1.34-.28.64-.37.95-1.07.93-2.11-.01-.75-.2-1.32-.55-1.72-.2-.22-.43-.37-.71-.46-.28-.09-.64-.13-1.09-.12l-1.87.03.08,4.69Zm-1.48.64l-.1-5.92c0-.11-.03-.19-.07-.24-.05-.05-.13-.09-.25-.13v-.16s3.8-.07,3.8-.07c.84-.01,1.48.07,1.93.26.64.27,1.13.73,1.44,1.38.25.51.38,1.1.4,1.79.02,1.21-.33,2.13-1.04,2.78-.3.27-.65.47-1.05.59-.41.12-.92.19-1.55.2l-3.81.07v-.16c.12-.04.2-.08.25-.14.05-.06.07-.14.07-.24Zm-4.25-2.08l-1.11-2.49-1.13,2.49h2.23Zm.43.96h-3.1l-.46.99c-.06.14-.1.24-.1.32,0,.15.11.26.34.31v.16h-2.26v-.16c.13-.03.24-.07.31-.14.07-.07.15-.2.24-.4l2.51-5.37c.08-.17.12-.31.12-.41,0-.16-.1-.27-.29-.34v-.16h2.42v.16c-.2.06-.3.16-.3.3,0,.1.03.21.1.34l2.6,5.39c.11.23.21.38.29.47.08.08.19.14.33.17v.16h-2.51v-.16c.22-.04.33-.14.33-.32,0-.07-.03-.18-.1-.32l-.47-.99Zm-7.85-1.14v2.39c0,.11.02.19.07.24.05.05.13.1.25.13v.16h-2.15v-.16c.12-.03.2-.08.25-.13.05-.05.08-.14.08-.24v-2.39l-2.21-3.18c-.19-.27-.34-.46-.45-.55-.11-.09-.24-.15-.39-.17v-.16h2.7v.16c-.22.04-.34.14-.34.32,0,.06.07.2.21.4l1.23,1.88,1.27-1.88c.14-.2.21-.34.21-.41,0-.08-.03-.15-.09-.2-.06-.06-.14-.09-.25-.11v-.16h2.64v.16c-.15.02-.28.08-.39.17-.11.09-.26.28-.45.55l-2.21,3.18Zm-6.96-.22l-3.93-.07-.04,2.52c0,.1.02.18.07.24.05.06.13.1.25.14v.16s-2.14-.04-2.14-.04v-.16c.12-.03.21-.07.26-.13.05-.05.07-.13.07-.24l.1-5.93c0-.1-.02-.18-.07-.24-.05-.06-.13-.1-.25-.14v-.16s2.14.04,2.14.04v.16c-.12.03-.21.07-.26.13-.05.06-.07.13-.07.24l-.04,2.25,3.93.07.04-2.25c0-.1-.02-.18-.07-.24-.05-.06-.13-.1-.25-.14v-.16s2.14.04,2.14.04v.16c-.12.03-.21.08-.26.13-.05.05-.07.13-.07.24l-.1,5.93c0,.1.02.18.07.24.05.05.13.1.25.14v.16s-2.14-.04-2.14-.04v-.16c.12-.03.2-.07.25-.13.05-.06.08-.13.08-.24l.04-2.52Zm-9.55.07l-1.02-2.53-1.21,2.45,2.23.08Zm.39.97l-3.1-.11-.49.97c-.07.13-.1.24-.11.32,0,.15.1.26.32.32v.16s-2.26-.08-2.26-.08v-.16c.14-.02.24-.07.32-.13.07-.07.16-.2.25-.39l2.69-5.28c.09-.17.13-.3.13-.41,0-.16-.09-.27-.28-.35v-.16s2.43.09,2.43.09v.16c-.2.05-.31.15-.31.29,0,.1.03.21.09.34l2.42,5.48c.1.23.19.39.27.48.08.09.19.14.33.18v.16s-2.51-.09-2.51-.09v-.16c.23-.03.34-.13.35-.31,0-.07-.03-.18-.09-.32l-.44-1Zm-6.09-5.05l-.79,1.66-.14-.08s0-.06,0-.08c0-.12-.1-.24-.3-.37-.6-.41-1.3-.61-2.1-.6-.35,0-.66.05-.93.15-.19.07-.35.18-.47.32-.12.14-.18.29-.17.45,0,.26.16.44.47.53.16.04.5.09,1.03.14l.79.07c.47.04.85.11,1.14.19.29.08.55.2.77.36.23.16.41.38.55.65.14.27.21.56.21.87,0,.49-.14.93-.44,1.32-.27.35-.71.62-1.29.8-.44.13-.91.2-1.41.21-.9.02-1.8-.19-2.69-.62-.19-.09-.3-.13-.34-.13-.04,0-.11.04-.2.12l-.15-.07.71-1.73.15.07s0,.05,0,.07c0,.15.08.29.22.42.22.19.56.36,1.01.5.45.13.89.2,1.29.19.44,0,.82-.09,1.13-.25.17-.09.31-.2.41-.35.1-.14.15-.29.15-.45,0-.23-.13-.4-.37-.49-.17-.06-.52-.12-1.03-.17l-.77-.07c-.52-.04-.88-.09-1.1-.14-.21-.05-.43-.12-.64-.23-.3-.15-.55-.37-.73-.68-.16-.27-.25-.59-.25-.95-.01-.59.18-1.08.57-1.48.51-.52,1.29-.79,2.33-.8.44,0,.85.03,1.22.11.38.08.85.24,1.42.47.19.08.31.11.36.11.07,0,.15-.04.24-.12l.14.07Z"/>
  <path class="cls-8" d="m111.74,4.47c.65,0,1.29.17,1.91.51.62.34,1.1.83,1.45,1.47.35.64.52,1.3.52,1.99s-.17,1.34-.51,1.97c-.34.63-.82,1.12-1.43,1.47s-1.26.52-1.93.52-1.31-.17-1.93-.52c-.61-.35-1.09-.84-1.44-1.47-.34-.63-.51-1.29-.51-1.97s.17-1.35.52-1.99c.35-.64.83-1.13,1.45-1.47.62-.34,1.25-.51,1.91-.51Zm0,.66c-.54,0-1.07.14-1.59.43-.52.29-.92.69-1.21,1.23s-.44,1.08-.44,1.66.14,1.12.43,1.64c.29.52.69.93,1.2,1.23.51.29,1.05.44,1.61.44s1.09-.15,1.61-.44c.51-.29.91-.7,1.2-1.23s.43-1.07.43-1.64-.14-1.13-.43-1.66c-.29-.53-.69-.94-1.21-1.23-.52-.29-1.05-.43-1.59-.43Zm-1.7,5.51v-4.27h1.43c.49,0,.84.04,1.06.12.22.08.39.22.52.41.13.2.2.4.2.63,0,.31-.11.58-.33.82s-.51.36-.87.39c.15.06.27.14.35.23.17.17.37.45.62.85l.51.84h-.82l-.37-.67c-.29-.53-.53-.86-.7-.99-.12-.1-.3-.15-.54-.15h-.4v1.81h-.67Zm.67-2.4h.82c.39,0,.66-.06.8-.18.14-.12.21-.28.21-.47,0-.13-.03-.24-.1-.34-.07-.1-.16-.17-.29-.22-.12-.05-.35-.07-.68-.07h-.77v1.29Z"/>
  <g>
    <path class="cls-6" d="m212.79,23.84l5.1-.51c.31,1.75.93,3.04,1.87,3.86.94.82,2.2,1.23,3.8,1.23,1.69,0,2.96-.37,3.81-1.1.86-.73,1.28-1.59,1.28-2.57,0-.63-.18-1.16-.54-1.6-.36-.44-.99-.83-1.89-1.15-.61-.22-2.01-.6-4.2-1.16-2.81-.71-4.78-1.59-5.91-2.63-1.59-1.46-2.39-3.25-2.39-5.35,0-1.35.37-2.62,1.12-3.8s1.83-2.08,3.24-2.69c1.41-.62,3.11-.92,5.11-.92,3.26,0,5.71.73,7.36,2.19,1.65,1.46,2.51,3.42,2.59,5.86l-5.24.24c-.22-1.37-.71-2.35-1.44-2.95-.74-.6-1.84-.9-3.32-.9s-2.71.32-3.58.96c-.55.41-.83.96-.83,1.65,0,.63.26,1.17.78,1.61.66.57,2.27,1.16,4.82,1.78,2.55.62,4.43,1.25,5.66,1.91s2.18,1.56,2.87,2.7c.69,1.14,1.04,2.55,1.04,4.23,0,1.52-.41,2.95-1.24,4.28-.83,1.33-1.99,2.32-3.51,2.96s-3.39.97-5.65.97c-3.28,0-5.8-.78-7.56-2.33-1.76-1.55-2.81-3.82-3.15-6.79Z"/>
    <path class="cls-6" d="m261.71,32.49h-5.7l-2.27-6.04h-10.37l-2.14,6.04h-5.56l10.11-26.58h5.54l10.39,26.58Zm-9.65-10.52l-3.58-9.86-3.51,9.86h7.08Z"/>
    <path class="cls-6" d="m264.5,32.49V5.91h5.24v10.46h10.27V5.91h5.24v26.58h-5.24v-11.62h-10.27v11.62h-5.24Z"/>
    <path class="cls-6" d="m297.49,32.49v-11.19l-9.51-15.4h6.14l6.11,10.52,5.98-10.52h6.04l-9.54,15.43v11.15h-5.22Z"/>
  </g>
  <g>
    <path class="cls-6" d="m334.93,32.49h-5.7l-2.27-6.04h-10.37l-2.14,6.04h-5.56l10.11-26.58h5.54l10.39,26.58Zm-9.65-10.52l-3.58-9.86-3.51,9.86h7.08Z"/>
    <path class="cls-6" d="m337.69,5.91h9.58c2.16,0,3.81.17,4.94.51,1.52.46,2.83,1.28,3.91,2.45s1.91,2.61,2.48,4.31c.57,1.7.85,3.79.85,6.28,0,2.19-.27,4.07-.8,5.66-.65,1.93-1.58,3.5-2.78,4.7-.91.91-2.14,1.61-3.68,2.12-1.16.37-2.7.56-4.64.56h-9.86V5.91Zm5.24,4.5v17.61h3.91c1.46,0,2.52-.08,3.17-.25.85-.22,1.55-.59,2.12-1.11.56-.52,1.02-1.38,1.37-2.57.35-1.19.53-2.81.53-4.87s-.18-3.63-.53-4.73c-.35-1.1-.85-1.96-1.49-2.57-.64-.62-1.45-1.03-2.43-1.25-.73-.17-2.17-.25-4.3-.25h-2.35Z"/>
    <path class="cls-6" d="m363.9,32.49V5.91h11.03c2.77,0,4.79.24,6.05.72,1.26.48,2.26,1.33,3.02,2.55.75,1.22,1.13,2.62,1.13,4.19,0,1.99-.57,3.64-1.72,4.94-1.15,1.3-2.86,2.12-5.13,2.46,1.13.68,2.07,1.42,2.81,2.23.74.81,1.73,2.25,2.98,4.32l3.17,5.19h-6.27l-3.79-5.78c-1.34-2.07-2.27-3.37-2.76-3.91-.5-.54-1.02-.91-1.58-1.11-.55-.2-1.43-.3-2.64-.3h-1.06v11.1h-5.24Zm5.24-15.34h3.88c2.51,0,4.08-.11,4.71-.33.63-.22,1.12-.59,1.47-1.12.35-.53.53-1.2.53-1.99,0-.89-.23-1.62-.7-2.17-.47-.55-1.12-.9-1.97-1.04-.43-.06-1.7-.09-3.82-.09h-4.09v6.75Z"/>
    <path class="cls-6" d="m389.91,32.49V5.91h5.24v26.58h-5.24Z"/>
  </g>
  <g>
    <path class="cls-6" d="m129.27,49.56l2.3.75c-.35,1.31-.94,2.29-1.76,2.92-.82.64-1.86.96-3.12.96-1.56,0-2.84-.55-3.84-1.64-1-1.09-1.51-2.58-1.51-4.48,0-2,.5-3.56,1.51-4.66s2.34-1.66,3.98-1.66c1.44,0,2.6.43,3.5,1.3.53.51.93,1.25,1.2,2.21l-2.35.57c-.14-.62-.43-1.12-.87-1.48s-.98-.54-1.61-.54c-.87,0-1.58.32-2.12.96-.54.64-.81,1.68-.81,3.11,0,1.52.27,2.6.8,3.25.53.65,1.23.97,2.08.97.63,0,1.17-.21,1.63-.62.45-.41.78-1.06.98-1.94Z"/>
    <path class="cls-6" d="m133.13,48.04c0-1.23.18-2.25.54-3.08.27-.61.63-1.16,1.09-1.65s.97-.85,1.52-1.08c.73-.32,1.58-.48,2.53-.48,1.73,0,3.11.55,4.15,1.65,1.04,1.1,1.56,2.63,1.56,4.59s-.52,3.46-1.55,4.56c-1.03,1.1-2.41,1.65-4.13,1.65s-3.13-.55-4.16-1.64c-1.03-1.09-1.55-2.59-1.55-4.51Zm2.44-.08c0,1.36.31,2.39.92,3.1.61.7,1.39,1.05,2.34,1.05s1.72-.35,2.33-1.05c.61-.7.91-1.74.91-3.14s-.29-2.41-.88-3.08c-.59-.68-1.37-1.02-2.35-1.02s-1.77.34-2.36,1.03c-.6.69-.9,1.72-.9,3.1Z"/>
    <path class="cls-6" d="m146.43,53.98v-11.93h2.37v9.9h5.9v2.03h-8.27Z"/>
    <path class="cls-6" d="m156.45,53.98v-11.93h2.37v9.9h5.9v2.03h-8.27Z"/>
    <path class="cls-6" d="m166.4,53.98v-12.03h8.71v2.03h-6.34v2.67h5.9v2.03h-5.9v3.27h6.56v2.03h-8.93Z"/>
    <path class="cls-6" d="m182.81,49.56v-2.03h5.11v4.79c-.5.49-1.22.93-2.16,1.3s-1.9.56-2.86.56c-1.23,0-2.3-.26-3.21-.79s-1.6-1.28-2.06-2.26c-.46-.98-.69-2.05-.69-3.2,0-1.25.26-2.37.77-3.34s1.26-1.72,2.25-2.24c.75-.4,1.69-.6,2.81-.6,1.46,0,2.6.31,3.42.94.82.63,1.35,1.49,1.58,2.6l-2.35.45c-.17-.59-.48-1.06-.93-1.4s-1.03-.51-1.71-.51c-1.04,0-1.86.34-2.47,1.01s-.92,1.67-.92,2.99c0,1.43.31,2.5.93,3.21.62.71,1.43,1.07,2.43,1.07.5,0,.99-.1,1.49-.3.5-.2.93-.44,1.29-.73v-1.53h-2.71Z"/>
    <path class="cls-6" d="m190.1,53.98v-12.03h8.71v2.03h-6.34v2.67h5.9v2.03h-5.9v3.27h6.56v2.03h-8.93Z"/>
    <path class="cls-6" d="m205.12,48.04c0-1.23.18-2.25.54-3.08.27-.61.63-1.16,1.09-1.65s.97-.85,1.52-1.08c.73-.32,1.58-.48,2.53-.48,1.73,0,3.11.55,4.15,1.65,1.04,1.1,1.56,2.63,1.56,4.59s-.52,3.46-1.55,4.56c-1.03,1.1-2.41,1.65-4.13,1.65s-3.13-.55-4.16-1.64c-1.03-1.09-1.55-2.59-1.55-4.51Zm2.44-.08c0,1.36.31,2.39.92,3.1.61.7,1.39,1.05,2.34,1.05s1.72-.35,2.33-1.05c.61-.7.91-1.74.91-3.14s-.29-2.41-.88-3.08c-.59-.68-1.37-1.02-2.35-1.02s-1.77.34-2.36,1.03c-.6.69-.9,1.72-.9,3.1Z"/>
    <path class="cls-6" d="m218.38,53.98v-12.03h8.05v2.03h-5.68v2.85h4.9v2.03h-4.9v5.11h-2.37Z"/>
    <path class="cls-6" d="m232.94,53.98v-12.03h8.71v2.03h-6.34v2.67h5.89v2.03h-5.89v3.27h6.56v2.03h-8.93Z"/>
    <path class="cls-6" d="m243.9,53.98v-12.03h2.31l4.8,8.03v-8.03h2.2v12.03h-2.38l-4.73-7.84v7.84h-2.2Z"/>
    <path class="cls-6" d="m261.19,49.56v-2.03h5.11v4.79c-.5.49-1.22.93-2.16,1.3-.94.37-1.9.56-2.86.56-1.23,0-2.3-.26-3.21-.79s-1.6-1.28-2.06-2.26c-.46-.98-.69-2.05-.69-3.2,0-1.25.26-2.37.77-3.34s1.26-1.72,2.25-2.24c.75-.4,1.69-.6,2.81-.6,1.46,0,2.6.31,3.42.94.82.63,1.35,1.49,1.58,2.6l-2.35.45c-.17-.59-.48-1.06-.93-1.4-.46-.34-1.03-.51-1.71-.51-1.04,0-1.86.34-2.47,1.01s-.92,1.67-.92,2.99c0,1.43.31,2.5.93,3.21.62.71,1.43,1.07,2.43,1.07.5,0,.99-.1,1.49-.3s.93-.44,1.29-.73v-1.53h-2.72Z"/>
    <path class="cls-6" d="m268.41,53.98v-12.03h2.37v12.03h-2.37Z"/>
    <path class="cls-6" d="m273.06,53.98v-12.03h2.31l4.8,8.03v-8.03h2.2v12.03h-2.38l-4.73-7.84v7.84h-2.2Z"/>
    <path class="cls-6" d="m284.89,53.98v-12.03h8.71v2.03h-6.33v2.67h5.89v2.03h-5.89v3.27h6.56v2.03h-8.93Z"/>
    <path class="cls-6" d="m295.83,53.98v-12.03h8.71v2.03h-6.33v2.67h5.89v2.03h-5.89v3.27h6.56v2.03h-8.93Z"/>
    <path class="cls-6" d="m306.77,53.98v-12.03h4.99c1.25,0,2.17.11,2.73.32.57.22,1.02.6,1.37,1.15s.51,1.18.51,1.9c0,.9-.26,1.65-.78,2.24s-1.29.96-2.32,1.11c.51.31.94.64,1.27,1.01.33.37.78,1.02,1.35,1.95l1.43,2.35h-2.84l-1.71-2.62c-.61-.94-1.03-1.52-1.25-1.77-.22-.24-.46-.41-.71-.5s-.65-.14-1.19-.14h-.48v5.02h-2.37Zm2.37-6.94h1.75c1.14,0,1.85-.05,2.13-.15.28-.1.5-.27.67-.51s.24-.54.24-.9c0-.4-.11-.73-.32-.98-.21-.25-.51-.41-.89-.47-.19-.03-.77-.04-1.73-.04h-1.85v3.05Z"/>
    <path class="cls-6" d="m318.54,53.98v-12.03h2.37v12.03h-2.37Z"/>
    <path class="cls-6" d="m323.19,53.98v-12.03h2.31l4.8,8.03v-8.03h2.2v12.03h-2.38l-4.73-7.84v7.84h-2.2Z"/>
    <path class="cls-6" d="m340.48,49.56v-2.03h5.11v4.79c-.5.49-1.22.93-2.16,1.3-.94.37-1.9.56-2.86.56-1.23,0-2.3-.26-3.21-.79s-1.6-1.28-2.06-2.26c-.46-.98-.69-2.05-.69-3.2,0-1.25.26-2.37.77-3.34s1.26-1.72,2.25-2.24c.75-.4,1.69-.6,2.81-.6,1.46,0,2.6.31,3.42.94.82.63,1.35,1.49,1.58,2.6l-2.35.45c-.17-.59-.48-1.06-.93-1.4-.46-.34-1.03-.51-1.71-.51-1.04,0-1.86.34-2.47,1.01s-.92,1.67-.92,2.99c0,1.43.31,2.5.93,3.21.62.71,1.43,1.07,2.43,1.07.5,0,.99-.1,1.49-.3s.93-.44,1.29-.73v-1.53h-2.72Z"/>
    <path class="cls-6" d="m362.72,52.51l-1.36,1.78c-.67-.33-1.31-.79-1.92-1.38-.48.44-.98.76-1.51.97-.53.21-1.17.31-1.91.31-1.46,0-2.56-.42-3.3-1.26-.57-.65-.86-1.4-.86-2.25,0-.77.22-1.46.67-2.08s1.12-1.15,2.01-1.6c-.4-.49-.7-.95-.91-1.39-.2-.44-.3-.86-.3-1.25,0-.73.28-1.34.85-1.85.57-.51,1.38-.76,2.43-.76s1.81.27,2.38.8c.57.53.86,1.18.86,1.94,0,.49-.14.95-.42,1.39-.28.44-.85.93-1.71,1.48l1.63,2.21c.19-.35.36-.81.5-1.37l2.03.48c-.2.74-.38,1.28-.53,1.62s-.31.63-.48.86c.25.24.58.5.97.79s.69.48.88.57Zm-7.01-4.04c-.52.27-.91.59-1.16.97-.26.38-.38.76-.38,1.16,0,.5.16.9.48,1.22s.74.47,1.28.47c.35,0,.69-.07,1.02-.21.33-.14.68-.38,1.07-.71l-2.29-2.9Zm.88-2.5l.61-.48c.45-.36.67-.71.67-1.06,0-.29-.11-.55-.32-.75-.22-.21-.51-.31-.88-.31s-.64.09-.84.27-.3.4-.3.64c0,.28.17.63.51,1.03l.55.66Z"/>
    <path class="cls-6" d="m368.7,53.98v-12.03h3.55l2.13,8.2,2.11-8.2h3.56v12.03h-2.2v-9.47l-2.33,9.47h-2.28l-2.32-9.47v9.47h-2.2Z"/>
    <path class="cls-6" d="m392.99,53.98h-2.58l-1.02-2.73h-4.69l-.97,2.73h-2.51l4.57-12.03h2.51l4.7,12.03Zm-4.37-4.76l-1.62-4.46-1.59,4.46h3.2Z"/>
    <path class="cls-6" d="m394.27,53.98v-12.03h2.31l4.8,8.03v-8.03h2.2v12.03h-2.38l-4.73-7.84v7.84h-2.2Z"/>
    <path class="cls-6" d="m416.68,53.98h-2.58l-1.02-2.73h-4.69l-.97,2.73h-2.51l4.57-12.03h2.51l4.7,12.03Zm-4.37-4.76l-1.62-4.46-1.59,4.46h3.2Z"/>
    <path class="cls-6" d="m423.4,49.56v-2.03h5.11v4.79c-.5.49-1.22.93-2.16,1.3-.94.37-1.9.56-2.86.56-1.23,0-2.3-.26-3.21-.79s-1.6-1.28-2.06-2.26c-.46-.98-.69-2.05-.69-3.2,0-1.25.26-2.37.77-3.34s1.26-1.72,2.25-2.24c.75-.4,1.69-.6,2.81-.6,1.46,0,2.6.31,3.42.94.82.63,1.35,1.49,1.58,2.6l-2.35.45c-.17-.59-.48-1.06-.93-1.4-.46-.34-1.03-.51-1.71-.51-1.04,0-1.86.34-2.47,1.01s-.92,1.67-.92,2.99c0,1.43.31,2.5.93,3.21.62.71,1.43,1.07,2.43,1.07.5,0,.99-.1,1.49-.3s.93-.44,1.29-.73v-1.53h-2.72Z"/>
    <path class="cls-6" d="m430.69,53.98v-12.03h8.71v2.03h-6.33v2.67h5.89v2.03h-5.89v3.27h6.56v2.03h-8.93Z"/>
    <path class="cls-6" d="m441.6,53.98v-12.03h3.55l2.13,8.2,2.11-8.2h3.56v12.03h-2.2v-9.47l-2.33,9.47h-2.28l-2.32-9.47v9.47h-2.2Z"/>
    <path class="cls-6" d="m455.3,53.98v-12.03h8.71v2.03h-6.33v2.67h5.89v2.03h-5.89v3.27h6.56v2.03h-8.93Z"/>
    <path class="cls-6" d="m466.26,53.98v-12.03h2.31l4.8,8.03v-8.03h2.2v12.03h-2.38l-4.73-7.84v7.84h-2.2Z"/>
    <path class="cls-6" d="m480.73,53.98v-9.99h-3.48v-2.03h9.33v2.03h-3.48v9.99h-2.37Z"/>
  </g>
  <g>
    <path class="cls-6" d="m212.36,73.33h-2.53l-1.01-2.69h-4.61l-.95,2.69h-2.47l4.5-11.82h2.46l4.62,11.82Zm-4.29-4.68l-1.59-4.39-1.56,4.39h3.15Z"/>
    <path class="cls-6" d="m221.19,73.33h-2.21v-4.37c0-.92-.05-1.52-.14-1.79-.09-.27-.25-.48-.46-.63-.21-.15-.47-.23-.77-.23-.38,0-.73.11-1.03.32-.3.21-.51.5-.63.85-.11.35-.17,1.01-.17,1.97v3.88h-2.21v-8.56h2.05v1.26c.73-.97,1.65-1.45,2.76-1.45.49,0,.93.09,1.34.27.4.18.71.41.92.69.21.28.35.6.43.95.08.35.12.86.12,1.52v5.32Z"/>
  </g>
  <g>
    <path class="cls-6" d="m237.73,73.33h-2.54l-1.01-2.69h-4.61l-.95,2.69h-2.47l4.5-11.82h2.46l4.62,11.82Zm-4.29-4.68l-1.59-4.39-1.56,4.39h3.15Z"/>
    <path class="cls-6" d="m244.46,73.33v-1.28c-.3.46-.71.82-1.2,1.08-.5.26-1.02.4-1.57.4s-1.07-.13-1.51-.38c-.45-.25-.77-.61-.97-1.06-.2-.46-.3-1.09-.3-1.89v-5.42h2.21v3.94c0,1.2.04,1.94.12,2.21.08.27.23.49.44.65.22.16.49.24.82.24.38,0,.72-.11,1.02-.32.3-.21.5-.48.61-.79s.17-1.08.17-2.31v-3.61h2.21v8.56h-2.06Z"/>
    <path class="cls-6" d="m252.64,64.76v1.81h-1.51v3.45c0,.7.01,1.11.04,1.22.03.12.09.21.2.29.1.08.23.11.37.11.2,0,.5-.07.89-.22l.19,1.76c-.51.23-1.1.34-1.75.34-.4,0-.76-.07-1.08-.21s-.55-.31-.7-.53-.25-.51-.31-.88c-.05-.26-.07-.8-.07-1.6v-3.73h-1.02v-1.81h1.02v-1.7l2.22-1.32v3.02h1.51Z"/>
    <path class="cls-6" d="m253.66,68.92c0-.75.18-1.48.54-2.19s.88-1.24,1.54-1.61c.66-.37,1.41-.56,2.22-.56,1.26,0,2.3.42,3.11,1.26.81.84,1.21,1.9,1.21,3.19s-.41,2.37-1.22,3.22c-.82.85-1.84,1.28-3.08,1.28-.77,0-1.5-.18-2.19-.53-.7-.35-1.22-.87-1.59-1.56s-.54-1.52-.54-2.5Zm2.27.12c0,.85.2,1.5.59,1.95.39.45.88.68,1.46.68s1.06-.23,1.45-.68c.39-.45.59-1.11.59-1.97s-.2-1.48-.59-1.94c-.39-.45-.88-.68-1.45-.68s-1.06.23-1.46.68c-.39.45-.59,1.1-.59,1.95Z"/>
    <path class="cls-6" d="m271.62,73.33h-2.21v-4.37c0-.92-.05-1.52-.14-1.79s-.25-.48-.46-.63c-.21-.15-.47-.23-.77-.23-.38,0-.73.11-1.03.32-.3.21-.51.5-.63.85-.11.35-.17,1.01-.17,1.97v3.88h-2.21v-8.56h2.05v1.26c.73-.97,1.65-1.45,2.75-1.45.49,0,.93.09,1.34.27s.71.41.92.69.35.6.43.95c.08.35.12.86.12,1.52v5.32Z"/>
    <path class="cls-6" d="m273.36,68.92c0-.75.18-1.48.54-2.19s.88-1.24,1.54-1.61c.66-.37,1.41-.56,2.22-.56,1.26,0,2.3.42,3.11,1.26.81.84,1.21,1.9,1.21,3.19s-.41,2.37-1.22,3.22c-.82.85-1.84,1.28-3.08,1.28-.77,0-1.5-.18-2.19-.53-.7-.35-1.22-.87-1.59-1.56s-.54-1.52-.54-2.5Zm2.27.12c0,.85.2,1.5.59,1.95.39.45.88.68,1.46.68s1.06-.23,1.45-.68c.39-.45.59-1.11.59-1.97s-.2-1.48-.59-1.94c-.39-.45-.88-.68-1.45-.68s-1.06.23-1.46.68c-.39.45-.59,1.1-.59,1.95Z"/>
    <path class="cls-6" d="m283.55,64.76h2.04v1.17c.73-.91,1.6-1.36,2.61-1.36.54,0,1,.11,1.39.34.39.23.72.57.97,1.02.37-.46.76-.8,1.19-1.02.42-.23.88-.34,1.36-.34.61,0,1.13.13,1.56.38.43.26.74.63.95,1.12.15.37.23.96.23,1.77v5.48h-2.21v-4.89c0-.85-.08-1.4-.23-1.65-.2-.32-.52-.48-.94-.48-.31,0-.6.1-.87.29-.27.19-.47.48-.59.85-.12.37-.18.96-.18,1.77v4.11h-2.21v-4.69c0-.83-.04-1.37-.12-1.61-.08-.24-.2-.42-.37-.54-.17-.12-.39-.18-.67-.18-.34,0-.65.09-.92.28-.27.19-.47.46-.59.81-.12.35-.18.94-.18,1.77v4.16h-2.21v-8.56Z"/>
    <path class="cls-6" d="m297.54,68.92c0-.75.18-1.48.54-2.19s.88-1.24,1.54-1.61c.66-.37,1.41-.56,2.22-.56,1.26,0,2.3.42,3.11,1.26.81.84,1.21,1.9,1.21,3.19s-.41,2.37-1.22,3.22c-.82.85-1.84,1.28-3.08,1.28-.77,0-1.5-.18-2.19-.53-.7-.35-1.22-.87-1.59-1.56s-.54-1.52-.54-2.5Zm2.27.12c0,.85.2,1.5.59,1.95.39.45.88.68,1.46.68s1.06-.23,1.45-.68c.39-.45.59-1.11.59-1.97s-.2-1.48-.59-1.94c-.39-.45-.88-.68-1.45-.68s-1.06.23-1.46.68c-.39.45-.59,1.1-.59,1.95Z"/>
    <path class="cls-6" d="m313.4,73.33v-1.28c-.3.46-.71.82-1.2,1.08-.5.26-1.02.4-1.57.4s-1.07-.13-1.51-.38c-.45-.25-.77-.61-.97-1.06-.2-.46-.3-1.09-.3-1.89v-5.42h2.21v3.94c0,1.2.04,1.94.12,2.21.08.27.23.49.44.65.22.16.49.24.82.24.38,0,.72-.11,1.02-.32.3-.21.5-.48.61-.79s.17-1.08.17-2.31v-3.61h2.21v8.56h-2.05Z"/>
    <path class="cls-6" d="m316.97,70.88l2.22-.35c.09.44.29.78.58,1,.29.23.69.34,1.21.34.57,0,1-.11,1.29-.32.19-.15.29-.35.29-.6,0-.17-.05-.31-.16-.43-.11-.11-.36-.21-.74-.3-1.78-.4-2.92-.77-3.39-1.1-.66-.46-.99-1.1-.99-1.93,0-.74.29-1.37.86-1.87s1.46-.76,2.66-.76,1.99.19,2.55.57c.56.38.94.95,1.15,1.69l-2.09.4c-.09-.33-.26-.59-.51-.77-.25-.18-.6-.27-1.07-.27-.58,0-1,.08-1.25.25-.17.12-.25.27-.25.46,0,.16.07.3.22.41.2.15.89.36,2.07.64,1.18.27,2,.61,2.47,1.01.46.4.69.96.69,1.69,0,.79-.32,1.46-.96,2.02-.64.56-1.59.85-2.84.85-1.14,0-2.04-.24-2.7-.71s-1.1-1.12-1.3-1.93Z"/>
    <path class="cls-6" d="m331.14,73.33v-11.82h2.33v11.82h-2.33Z"/>
    <path class="cls-6" d="m343.28,73.33h-2.21v-4.37c0-.92-.05-1.52-.14-1.79s-.25-.48-.46-.63c-.21-.15-.47-.23-.77-.23-.38,0-.73.11-1.03.32-.3.21-.51.5-.63.85-.11.35-.17,1.01-.17,1.97v3.88h-2.21v-8.56h2.05v1.26c.73-.97,1.65-1.45,2.75-1.45.49,0,.93.09,1.34.27s.71.41.92.69.35.6.43.95c.08.35.12.86.12,1.52v5.32Z"/>
    <path class="cls-6" d="m344.74,70.88l2.22-.35c.09.44.29.78.58,1,.29.23.69.34,1.21.34.57,0,1-.11,1.29-.32.19-.15.29-.35.29-.6,0-.17-.05-.31-.16-.43-.11-.11-.36-.21-.74-.3-1.78-.4-2.92-.77-3.39-1.1-.66-.46-.99-1.1-.99-1.93,0-.74.29-1.37.86-1.87s1.46-.76,2.66-.76,1.99.19,2.55.57c.56.38.94.95,1.15,1.69l-2.09.4c-.09-.33-.26-.59-.51-.77-.25-.18-.6-.27-1.07-.27-.58,0-1,.08-1.25.25-.17.12-.25.27-.25.46,0,.16.07.3.22.41.2.15.89.36,2.07.64,1.18.27,2,.61,2.47,1.01.46.4.69.96.69,1.69,0,.79-.32,1.46-.96,2.02-.64.56-1.59.85-2.84.85-1.14,0-2.04-.24-2.7-.71s-1.1-1.12-1.3-1.93Z"/>
    <path class="cls-6" d="m358.32,64.76v1.81h-1.51v3.45c0,.7.01,1.11.04,1.22.03.12.09.21.2.29.1.08.23.11.37.11.2,0,.5-.07.89-.22l.19,1.76c-.51.23-1.1.34-1.75.34-.4,0-.76-.07-1.08-.21s-.55-.31-.7-.53-.25-.51-.31-.88c-.05-.26-.07-.8-.07-1.6v-3.73h-1.02v-1.81h1.02v-1.7l2.22-1.32v3.02h1.51Z"/>
    <path class="cls-6" d="m359.86,63.6v-2.1h2.21v2.1h-2.21Zm0,9.72v-8.56h2.21v8.56h-2.21Z"/>
    <path class="cls-6" d="m368.17,64.76v1.81h-1.51v3.45c0,.7.01,1.11.04,1.22.03.12.09.21.2.29.1.08.23.11.37.11.2,0,.5-.07.89-.22l.19,1.76c-.51.23-1.1.34-1.75.34-.4,0-.76-.07-1.08-.21s-.55-.31-.7-.53-.25-.51-.31-.88c-.05-.26-.07-.8-.07-1.6v-3.73h-1.02v-1.81h1.02v-1.7l2.22-1.32v3.02h1.51Z"/>
    <path class="cls-6" d="m375.21,73.33v-1.28c-.3.46-.71.82-1.2,1.08-.5.26-1.02.4-1.57.4s-1.07-.13-1.51-.38c-.45-.25-.77-.61-.97-1.06-.2-.46-.3-1.09-.3-1.89v-5.42h2.21v3.94c0,1.2.04,1.94.12,2.21.08.27.23.49.44.65.22.16.49.24.82.24.38,0,.72-.11,1.02-.32.3-.21.5-.48.61-.79s.17-1.08.17-2.31v-3.61h2.21v8.56h-2.05Z"/>
    <path class="cls-6" d="m383.39,64.76v1.81h-1.51v3.45c0,.7.01,1.11.04,1.22.03.12.09.21.2.29.1.08.23.11.37.11.2,0,.5-.07.89-.22l.19,1.76c-.51.23-1.1.34-1.75.34-.4,0-.76-.07-1.08-.21s-.55-.31-.7-.53-.25-.51-.31-.88c-.05-.26-.07-.8-.07-1.6v-3.73h-1.02v-1.81h1.02v-1.7l2.22-1.32v3.02h1.51Z"/>
    <path class="cls-6" d="m384.92,63.6v-2.1h2.21v2.1h-2.21Zm0,9.72v-8.56h2.21v8.56h-2.21Z"/>
    <path class="cls-6" d="m388.89,68.92c0-.75.18-1.48.54-2.19s.88-1.24,1.54-1.61c.66-.37,1.41-.56,2.22-.56,1.26,0,2.3.42,3.11,1.26.81.84,1.21,1.9,1.21,3.19s-.41,2.37-1.22,3.22c-.82.85-1.84,1.28-3.08,1.28-.77,0-1.5-.18-2.19-.53-.7-.35-1.22-.87-1.59-1.56s-.54-1.52-.54-2.5Zm2.27.12c0,.85.2,1.5.59,1.95.39.45.88.68,1.46.68s1.06-.23,1.45-.68c.39-.45.59-1.11.59-1.97s-.2-1.48-.59-1.94c-.39-.45-.88-.68-1.45-.68s-1.06.23-1.46.68c-.39.45-.59,1.1-.59,1.95Z"/>
    <path class="cls-6" d="m406.86,73.33h-2.21v-4.37c0-.92-.05-1.52-.14-1.79s-.25-.48-.46-.63c-.21-.15-.47-.23-.77-.23-.38,0-.73.11-1.03.32-.3.21-.51.5-.63.85-.11.35-.17,1.01-.17,1.97v3.88h-2.21v-8.56h2.05v1.26c.73-.97,1.65-1.45,2.75-1.45.49,0,.93.09,1.34.27s.71.41.92.69.35.6.43.95c.08.35.12.86.12,1.52v5.32Z"/>
  </g>
  <g>
    <path class="cls-6" d="m251.14,93.42v-12.03h3.55l2.13,8.2,2.11-8.2h3.56v12.03h-2.2v-9.47l-2.33,9.47h-2.28l-2.32-9.47v9.47h-2.2Z"/>
    <path class="cls-6" d="m275.43,93.42h-2.58l-1.02-2.73h-4.69l-.97,2.73h-2.51l4.57-12.03h2.51l4.7,12.03Zm-4.37-4.76l-1.62-4.46-1.59,4.46h3.2Z"/>
    <path class="cls-6" d="m276.71,93.42v-12.03h2.31l4.8,8.03v-8.03h2.2v12.03h-2.38l-4.73-7.84v7.84h-2.2Z"/>
    <path class="cls-6" d="m293.99,89v-2.03h5.11v4.79c-.5.49-1.22.93-2.16,1.3-.94.37-1.9.56-2.86.56-1.23,0-2.3-.26-3.21-.79s-1.6-1.28-2.06-2.26c-.46-.98-.69-2.05-.69-3.2,0-1.25.26-2.37.77-3.34s1.26-1.72,2.25-2.24c.75-.4,1.69-.6,2.81-.6,1.46,0,2.6.31,3.42.94.82.63,1.35,1.49,1.58,2.6l-2.35.45c-.17-.59-.48-1.06-.93-1.4-.46-.34-1.03-.51-1.71-.51-1.04,0-1.86.34-2.47,1.01s-.92,1.67-.92,2.99c0,1.43.31,2.5.93,3.21.62.71,1.43,1.07,2.43,1.07.5,0,.99-.1,1.49-.3s.93-.44,1.29-.73v-1.53h-2.72Z"/>
    <path class="cls-6" d="m311.87,93.42h-2.58l-1.02-2.73h-4.69l-.97,2.73h-2.51l4.57-12.03h2.51l4.7,12.03Zm-4.37-4.76l-1.62-4.46-1.59,4.46h3.2Z"/>
    <path class="cls-6" d="m313.2,93.42v-11.93h2.37v9.9h5.89v2.03h-8.26Z"/>
    <path class="cls-6" d="m323.14,81.4h2.37v6.51c0,1.03.03,1.7.09,2.01.1.49.34.89.73,1.19.38.3.9.45,1.57.45s1.18-.14,1.52-.42.55-.63.62-1.04.1-1.09.1-2.04v-6.65h2.37v6.32c0,1.44-.06,2.46-.19,3.06-.13.6-.36,1.1-.71,1.51-.34.41-.8.74-1.38.98-.58.24-1.33.37-2.26.37-1.12,0-1.97-.13-2.55-.4-.58-.27-1.04-.61-1.37-1.03-.34-.42-.56-.87-.67-1.33-.15-.69-.23-1.71-.23-3.05v-6.42Z"/>
    <path class="cls-6" d="m335.01,93.42v-12.03h4.99c1.25,0,2.17.11,2.73.32.57.22,1.02.6,1.37,1.15s.51,1.18.51,1.9c0,.9-.26,1.65-.78,2.24s-1.29.96-2.32,1.11c.51.31.94.64,1.27,1.01.33.37.78,1.02,1.35,1.95l1.43,2.35h-2.84l-1.71-2.62c-.61-.94-1.03-1.52-1.25-1.77-.22-.24-.46-.41-.71-.5s-.65-.14-1.19-.14h-.48v5.02h-2.37Zm2.37-6.94h1.75c1.14,0,1.85-.05,2.13-.15.28-.1.5-.27.67-.51s.24-.54.24-.9c0-.4-.11-.73-.32-.98-.21-.25-.51-.41-.89-.47-.19-.03-.77-.04-1.73-.04h-1.85v3.05Z"/>
    <path class="cls-6" d="m346.83,81.4h2.37v6.51c0,1.03.03,1.7.09,2.01.1.49.34.89.73,1.19.38.3.9.45,1.57.45s1.18-.14,1.52-.42.55-.63.62-1.04.1-1.09.1-2.04v-6.65h2.37v6.32c0,1.44-.06,2.46-.19,3.06-.13.6-.36,1.1-.71,1.51-.34.41-.8.74-1.38.98-.58.24-1.33.37-2.26.37-1.12,0-1.97-.13-2.55-.4-.58-.27-1.04-.61-1.37-1.03-.34-.42-.56-.87-.67-1.33-.15-.69-.23-1.71-.23-3.05v-6.42Z"/>
  </g>
</svg>